<svg width="58" height="58" viewBox="0 0 58 58" fill="none" xmlns="http://www.w3.org/2000/svg">
<path d="M40.3583 37.4583L49.5417 29.6042L51.1125 29.725C51.7972 29.8056 52.3313 30.0875 52.7147 30.5708C53.0982 31.0542 53.2891 31.5778 53.2875 32.1417C53.2875 32.4639 53.2271 32.7861 53.1062 33.1083C52.9854 33.4306 52.7639 33.7125 52.4417 33.9542L46.1583 39.4521L48.0312 47.6083C48.0715 47.6889 48.0917 47.7799 48.0917 47.8814V48.1521C48.0917 48.8368 47.85 49.4112 47.3667 49.8752C46.8833 50.3392 46.3194 50.5704 45.675 50.5687C45.4736 50.5687 45.2625 50.5381 45.0418 50.4769C44.8211 50.4157 44.6092 50.3255 44.4062 50.2062L43.1375 49.4208L40.3583 37.4583ZM34.6792 19.8167L32.1417 13.8958L32.6854 12.5667C32.8868 12.0833 33.1985 11.7104 33.6207 11.4477C34.0428 11.1851 34.4762 11.0546 34.9208 11.0562C35.3639 11.0562 35.7973 11.1771 36.221 11.4187C36.6447 11.6604 36.9565 12.0229 37.1562 12.5062L40.4792 20.3604L34.6792 19.8167ZM11.7208 47.6083L14.3792 36.1896L5.49791 28.5167C5.17569 28.275 4.96463 27.9931 4.86474 27.6708C4.76485 27.3486 4.71411 27.0264 4.71249 26.7042C4.71249 26.1403 4.90422 25.6167 5.28766 25.1333C5.6711 24.65 6.20438 24.3681 6.88749 24.2875L18.6083 23.2604L23.1396 12.5062C23.341 12.0229 23.6535 11.6604 24.0772 11.4187C24.501 11.1771 24.9335 11.0562 25.375 11.0562C25.818 11.0562 26.2514 11.1771 26.6752 11.4187C27.0989 11.6604 27.4106 12.0229 27.6104 12.5062L32.1417 23.2604L43.8625 24.2875C44.5472 24.3681 45.0813 24.65 45.4647 25.1333C45.8482 25.6167 46.0391 26.1403 46.0375 26.7042C46.0375 27.0264 45.9875 27.3486 45.8877 27.6708C45.7878 27.9931 45.5759 28.275 45.2521 28.5167L36.3708 36.1896L39.0292 47.6083C39.0694 47.7292 39.0896 47.9104 39.0896 48.1521C39.0896 48.8368 38.8479 49.4112 38.3646 49.8752C37.8812 50.3392 37.3174 50.5704 36.6729 50.5687C36.5521 50.5687 36.1292 50.4479 35.4042 50.2062L25.375 44.1646L15.3458 50.2062C15.1444 50.3271 14.9334 50.4181 14.7127 50.4793C14.4919 50.5406 14.2801 50.5704 14.0771 50.5687C13.3521 50.5687 12.7278 50.2763 12.2042 49.6915C11.6805 49.1067 11.5194 48.4123 11.7208 47.6083Z" fill="#0A2870"/>
</svg>
