<svg width="58" height="58" viewBox="0 0 58 58" fill="none" xmlns="http://www.w3.org/2000/svg">
<path d="M21.0975 48.3333C17.9236 48.3333 15.225 47.2217 13.0017 44.9983C10.7783 42.775 9.66666 40.0764 9.66666 36.9025V21.0975C9.66666 17.9236 10.7783 15.225 13.0017 13.0017C15.225 10.7783 17.9236 9.66666 21.0975 9.66666H36.9025C40.0764 9.66666 42.775 10.7783 44.9983 13.0017C47.2217 15.225 48.3333 17.9236 48.3333 21.0975V36.9025C48.3333 40.0764 47.2217 42.775 44.9983 44.9983C42.775 47.2217 40.0764 48.3333 36.9025 48.3333H21.0975ZM21.9361 45.9167C21.9361 45.3254 22.1318 44.8364 22.5233 44.4497C22.9148 44.0631 23.4006 43.8697 23.9806 43.8697C24.5606 43.8697 25.0463 44.0663 25.4378 44.4594C25.8293 44.8509 26.0251 45.3367 26.0251 45.9167H31.9749C31.9749 45.3254 32.1707 44.8364 32.5622 44.4497C32.9537 44.0631 33.4394 43.8697 34.0194 43.8697C34.5994 43.8697 35.0852 44.0663 35.4767 44.4594C35.8682 44.8509 36.0639 45.3367 36.0639 45.9167C38.2486 45.9167 39.9725 45.5662 41.2356 44.8654C42.5003 44.1662 43.5556 43.1536 44.4014 41.8277H41.0833C41.0833 42.4077 40.8876 42.8934 40.4961 43.2849C40.103 43.6764 39.6172 43.8722 39.0388 43.8722C38.4588 43.8722 37.9731 43.6764 37.5816 43.2849C37.1901 42.8918 36.9943 42.4061 36.9943 41.8277H31.0445C31.0445 42.4189 30.8487 42.9071 30.4572 43.2922C30.0657 43.6788 29.58 43.8722 29 43.8722C28.42 43.8722 27.9342 43.6764 27.5427 43.2849C27.1512 42.8918 26.9555 42.4061 26.9555 41.8277H21.0057C21.0057 42.4189 20.8099 42.9071 20.4184 43.2922C20.0269 43.6788 19.5412 43.8722 18.9612 43.8722C18.3812 43.8722 17.8954 43.6764 17.5039 43.2849C17.1124 42.8918 16.9167 42.4061 16.9167 41.8277H13.5986C14.4444 43.1536 15.4997 44.1662 16.7644 44.8654C18.0275 45.5662 19.7514 45.9167 21.9361 45.9167Z" fill="#4997FF"/>
</svg>
