<svg width="50" height="50" viewBox="0 0 50 50" fill="none" xmlns="http://www.w3.org/2000/svg">
<path d="M24.6584 37.207L12.1584 41.9922C11.5822 42.207 10.9767 41.7676 11.006 41.1523L11.6896 27.7832C11.6994 27.5781 11.631 27.373 11.5041 27.207L3.08612 16.7969C2.69549 16.3184 2.92986 15.6055 3.52557 15.4395L16.4553 11.9629C16.6603 11.9043 16.8361 11.7773 16.9435 11.6016L24.2482 0.390625C24.5803 -0.126953 25.342 -0.126953 25.674 0.390625L32.9787 11.6113C33.0959 11.7871 33.2717 11.9141 33.467 11.9727L46.3967 15.4492C46.9924 15.6055 47.2267 16.3281 46.8361 16.8066L38.4279 27.2168C38.301 27.3828 38.2326 27.5879 38.2424 27.793L38.926 41.1621C38.9553 41.7773 38.3498 42.2168 37.7736 42.002L25.2736 37.2168C25.0685 37.1387 24.8537 37.1387 24.6584 37.207Z" fill="#d3d3d3"/>
<path d="M44.5408 5.04886L40.5369 1.04496C40.4197 0.927769 40.2635 0.878941 40.1072 0.898472C39.951 0.918004 39.8045 1.01566 39.7264 1.15238L35.5955 9.28714C35.4783 9.49222 35.5174 9.73636 35.6834 9.90238C35.781 10 35.9178 10.0489 36.0447 10.0489C36.1326 10.0489 36.2205 10.0293 36.2986 9.9805L44.4236 5.85941C44.5603 5.78128 44.658 5.64457 44.6775 5.47855C44.7068 5.3223 44.6482 5.16605 44.5408 5.04886ZM14.5603 9.29691L10.4295 1.16214C10.3514 1.02543 10.2146 0.927769 10.0486 0.908238C9.89237 0.888707 9.72635 0.937535 9.61893 1.05472L5.61503 5.05863C5.49784 5.17582 5.44901 5.33207 5.46854 5.48832C5.48807 5.64457 5.58573 5.79105 5.72245 5.86918L13.8572 10C13.9353 10.0489 14.0232 10.0684 14.1111 10.0684C14.2478 10.0684 14.3748 10.0196 14.4724 9.92191C14.6385 9.74613 14.6678 9.49222 14.5603 9.29691ZM28.3006 49.336L25.4685 40.6641C25.449 40.5762 25.4002 40.4981 25.3416 40.4395C25.2439 40.3418 25.117 40.293 24.9803 40.293C24.7459 40.293 24.5506 40.4493 24.4822 40.6739L21.6502 49.3457C21.6111 49.502 21.6404 49.668 21.7381 49.795C21.8357 49.9219 21.9822 50 22.1482 50H27.8025C27.9588 50 28.115 49.9219 28.2127 49.795C28.3201 49.6582 28.3494 49.4922 28.3006 49.336Z" fill="#d3d3d3"/>
</svg>
