<svg width="24" height="24" viewBox="0 0 24 24" fill="none" xmlns="http://www.w3.org/2000/svg">
<path d="M18 2V4M6 2V4" stroke="black" stroke-width="1.5" stroke-linecap="round" stroke-linejoin="round"/>
<path d="M9 17L8.99999 13.3472C8.99999 13.1555 8.86325 13 8.69458 13H8M12.6297 17L13.9842 13.3492C14.0475 13.1785 13.9128 13 13.7207 13H12" stroke="black" stroke-width="1.5" stroke-linecap="round"/>
<path d="M6 8H18" stroke="black" stroke-width="1.5" stroke-linecap="round" stroke-linejoin="round"/>
<path d="M1.5 12.2432C1.5 7.88594 1.5 5.70728 2.75212 4.35364C4.00424 3 6.01949 3 10.05 3H11.95C15.9805 3 17.9958 3 19.2479 4.35364C20.5 5.70728 20.5 7.88594 20.5 12.2432V12.7568C20.5 17.1141 20.5 19.2927 19.2479 20.6464C17.9958 22 15.9805 22 11.95 22H10.05C6.01949 22 4.00424 22 2.75212 20.6464C1.5 19.2927 1.5 17.1141 1.5 12.7568V12.2432Z" stroke="black" stroke-width="1.5" stroke-linecap="round" stroke-linejoin="round"/>
</svg>
