<svg width="25" height="25" viewBox="0 0 25 25" fill="none" xmlns="http://www.w3.org/2000/svg">
<g id="carbon:result-new">
<path id="Vector" d="M20.3125 23.4375C22.0384 23.4375 23.4375 22.0384 23.4375 20.3125C23.4375 18.5866 22.0384 17.1875 20.3125 17.1875C18.5866 17.1875 17.1875 18.5866 17.1875 20.3125C17.1875 22.0384 18.5866 23.4375 20.3125 23.4375Z" fill="#B4B4B4"/>
<path id="Vector_2" d="M7.8125 10.1562H9.375V11.7188H7.8125V10.1562ZM7.8125 14.0625H9.375V15.625H7.8125V14.0625ZM7.8125 17.9688H9.375V19.5312H7.8125V17.9688ZM10.9375 10.1562H17.1875V11.7188H10.9375V10.1562ZM10.9375 14.0625H17.1875V15.625H10.9375V14.0625ZM10.9375 17.9688H14.0625V19.5312H10.9375V17.9688Z" fill="#B4B4B4"/>
<path id="Vector_3" d="M5.46875 21.875V5.46875H7.8125V7.8125H17.1875V5.46875H19.5312V14.0625H21.0938V5.46875C21.0938 5.05435 20.9291 4.65692 20.6361 4.3639C20.3431 4.07087 19.9457 3.90625 19.5312 3.90625H17.1875V3.125C17.1875 2.7106 17.0229 2.31317 16.7299 2.02015C16.4368 1.72712 16.0394 1.5625 15.625 1.5625H9.375C8.9606 1.5625 8.56317 1.72712 8.27015 2.02015C7.97712 2.31317 7.8125 2.7106 7.8125 3.125V3.90625H5.46875C5.05435 3.90625 4.65692 4.07087 4.3639 4.3639C4.07087 4.65692 3.90625 5.05435 3.90625 5.46875V21.875C3.90625 22.2894 4.07087 22.6868 4.3639 22.9799C4.65692 23.2729 5.05435 23.4375 5.46875 23.4375H14.0625V21.875H5.46875ZM9.375 3.125H15.625V6.25H9.375V3.125Z" fill="#B4B4B4"/>
</g>
</svg>
