<svg width="35" height="35" viewBox="0 0 35 35" fill="none" xmlns="http://www.w3.org/2000/svg">
<g id="streamline:entertainment-camera-video-film-television-tv-camera-movies-video-recorder" clip-path="url(#clip0_391_4428)">
<g id="Group">
<path id="Vector" d="M8.75 16.25C12.8921 16.25 16.25 12.8921 16.25 8.75C16.25 4.60786 12.8921 1.25 8.75 1.25C4.60786 1.25 1.25 4.60786 1.25 8.75C1.25 12.8921 4.60786 16.25 8.75 16.25Z" stroke="#777777" stroke-linecap="round" stroke-linejoin="round"/>
<path id="Vector_2" d="M26.25 16.25C29.0114 16.25 31.25 14.0114 31.25 11.25C31.25 8.48858 29.0114 6.25 26.25 6.25C23.4886 6.25 21.25 8.48858 21.25 11.25C21.25 14.0114 23.4886 16.25 26.25 16.25Z" stroke="#777777" stroke-linecap="round" stroke-linejoin="round"/>
<path id="Vector_3" d="M25 22.5H11.25C9.86929 22.5 8.75 23.6193 8.75 25V31.25C8.75 32.6307 9.86929 33.75 11.25 33.75H25C26.3807 33.75 27.5 32.6307 27.5 31.25V25C27.5 23.6193 26.3807 22.5 25 22.5Z" stroke="#777777" stroke-linecap="round" stroke-linejoin="round"/>
<path id="Vector_4" d="M33.75 25V31.25" stroke="#777777" stroke-linecap="round" stroke-linejoin="round"/>
</g>
</g>
<defs>
<clipPath id="clip0_391_4428">
<rect width="35" height="35" fill="white"/>
</clipPath>
</defs>
</svg>
