<svg width="45" height="45" viewBox="0 0 45 45" fill="none" xmlns="http://www.w3.org/2000/svg">
<g id="material-symbols:explore-outline">
<path id="Vector" d="M12.1875 32.8125L26.25 26.25L32.8125 12.1875L18.75 18.75L12.1875 32.8125ZM22.5 24.375C21.9688 24.375 21.5231 24.195 21.1631 23.835C20.8031 23.475 20.6238 23.03 20.625 22.5C20.625 21.9688 20.805 21.5231 21.165 21.1631C21.525 20.8031 21.97 20.6238 22.5 20.625C23.0312 20.625 23.4769 20.805 23.8369 21.165C24.1969 21.525 24.3762 21.97 24.375 22.5C24.375 23.0312 24.195 23.4769 23.835 23.8369C23.475 24.1969 23.03 24.3762 22.5 24.375ZM22.5 41.25C19.9062 41.25 17.4688 40.7575 15.1875 39.7725C12.9063 38.7875 10.9219 37.4519 9.23438 35.7656C7.54688 34.0781 6.21125 32.0938 5.2275 29.8125C4.24375 27.5312 3.75125 25.0938 3.75 22.5C3.75 19.9062 4.2425 17.4688 5.2275 15.1875C6.2125 12.9063 7.54813 10.9219 9.23438 9.23438C10.9219 7.54688 12.9063 6.21125 15.1875 5.2275C17.4688 4.24375 19.9062 3.75125 22.5 3.75C25.0938 3.75 27.5312 4.2425 29.8125 5.2275C32.0938 6.2125 34.0781 7.54813 35.7656 9.23438C37.4531 10.9219 38.7894 12.9063 39.7744 15.1875C40.7594 17.4688 41.2513 19.9062 41.25 22.5C41.25 25.0938 40.7575 27.5312 39.7725 29.8125C38.7875 32.0938 37.4519 34.0781 35.7656 35.7656C34.0781 37.4531 32.0938 38.7894 29.8125 39.7744C27.5312 40.7594 25.0938 41.2513 22.5 41.25ZM22.5 37.5C26.6875 37.5 30.2344 36.0469 33.1406 33.1406C36.0469 30.2344 37.5 26.6875 37.5 22.5C37.5 18.3125 36.0469 14.7656 33.1406 11.8594C30.2344 8.95312 26.6875 7.5 22.5 7.5C18.3125 7.5 14.7656 8.95312 11.8594 11.8594C8.95312 14.7656 7.5 18.3125 7.5 22.5C7.5 26.6875 8.95312 30.2344 11.8594 33.1406C14.7656 36.0469 18.3125 37.5 22.5 37.5Z" fill="#262626"/>
</g>
</svg>
