<svg width="28" height="28" viewBox="0 0 28 28" fill="none" xmlns="http://www.w3.org/2000/svg">
<g id="fluent:filter-20-regular">
<path id="Vector" d="M10.5 18.2H17.5C17.6749 18.1997 17.8436 18.2649 17.9729 18.3827C18.1022 18.5006 18.1826 18.6625 18.1984 18.8368C18.2143 19.011 18.1643 19.1848 18.0583 19.324C17.9524 19.4632 17.7981 19.5576 17.626 19.5888L17.5 19.6H10.5C10.3251 19.6003 10.1564 19.5351 10.0271 19.4173C9.89786 19.2994 9.8174 19.1375 9.8016 18.9633C9.78579 18.789 9.83578 18.6152 9.94173 18.476C10.0477 18.3368 10.2019 18.2424 10.374 18.2112L10.5 18.2ZM7.70002 12.6H20.3C20.4749 12.5997 20.6437 12.6649 20.7729 12.7827C20.9022 12.9006 20.9826 13.0625 20.9984 13.2368C21.0143 13.411 20.9643 13.5848 20.8583 13.724C20.7524 13.8632 20.5981 13.9576 20.426 13.9888L20.3 14H7.70002C7.5251 14.0003 7.35639 13.9351 7.22712 13.8173C7.09786 13.6994 7.0174 13.5375 7.0016 13.3633C6.98579 13.189 7.03578 13.0152 7.14173 12.876C7.24767 12.7368 7.40189 12.6424 7.57402 12.6112L7.70002 12.6ZM4.90002 7H23.1C23.2749 6.99968 23.4437 7.06486 23.5729 7.18271C23.7022 7.30056 23.7826 7.46254 23.7984 7.63675C23.8142 7.81096 23.7643 7.98477 23.6583 8.12397C23.5524 8.26316 23.3981 8.35764 23.226 8.3888L23.1 8.4H4.90002C4.7251 8.40032 4.55639 8.33514 4.42712 8.21729C4.29786 8.09944 4.2174 7.93746 4.2016 7.76325C4.18579 7.58904 4.23578 7.41523 4.34173 7.27604C4.44767 7.13685 4.60189 7.04237 4.77402 7.0112L4.90002 7Z" fill="black"/>
</g>
</svg>
