<svg width="48" height="33" viewBox="0 0 48 33" fill="none" xmlns="http://www.w3.org/2000/svg">
<path d="M38.5216 0.791016H38.2481C37.5157 0.816406 36.7052 0.959961 35.8263 1.21094C34.0685 1.71484 32.0763 2.63281 30.0353 3.72852C25.9435 5.91602 21.6564 8.80664 18.17 10.4277C15.5919 11.6387 12.379 12.4199 9.40049 13.1133C6.42198 13.8066 3.64366 14.4219 2.13877 15.125C1.44249 15.457 1.07432 15.7988 0.897564 16.0918C0.721783 16.375 0.692486 16.5996 0.756939 16.9121C0.885845 17.5371 1.59385 18.416 2.5626 19.0508L2.88389 19.2559C18.7657 19.0312 31.1485 17.918 40.7481 14.1191C40.9532 12.4004 41.4024 10.7305 42.3595 9.38281V9.37305L42.3692 9.36328C44.7618 6.21875 43.2384 2.27539 40.1817 1.07324C39.6935 0.882813 39.1368 0.789062 38.5216 0.787109V0.791016ZM40.6603 18.8691C36.3439 21.3203 30.5235 22.4824 24.1368 22.8926C17.4278 23.3223 10.1036 22.9023 3.28526 22.1309L3.46983 23.498C6.51573 23.8105 13.0919 24.6504 20.3478 24.6211C27.8868 24.5918 35.9337 23.5176 40.7189 20.1094C40.6993 19.709 40.6798 19.2988 40.6603 18.8691ZM41.3536 21.8184C36.7735 24.8945 30.2403 26.0078 23.7853 26.291C28.1505 30.0996 32.506 31.6719 36.2169 32.0625C40.631 32.5313 44.1759 31.2129 45.4747 30.1289C46.7442 29.0742 47.1837 28.2246 47.2618 27.5703C47.3302 26.9062 47.0665 26.2715 46.461 25.5684C45.3575 24.2598 43.1896 22.9902 41.3536 21.8184Z" fill="#F24E1E"/>
</svg>
