<svg width="35" height="35" viewBox="0 0 35 35" fill="none" xmlns="http://www.w3.org/2000/svg">
<g id="maki:gaming">
<path id="Vector" d="M30.5667 26.8334C29.1667 27.5334 27.3 27.0667 26.3667 25.6667L23.8 22.4H11.2L8.63336 25.6667C7.46669 27.3 5.36669 27.5334 3.73336 26.3667C2.56669 25.4334 2.10002 24.0334 2.33336 22.8667L3.96669 14.2334C4.43336 11.4334 7.00002 9.33337 9.80002 9.33337H16.3334V5.83337C16.3334 3.96671 17.7334 2.33337 19.6 2.33337H26.8334C27.5334 2.33337 28 2.80004 28 3.50004C28 4.20004 27.5334 4.66671 26.8334 4.66671H19.8334C19.1334 4.66671 18.6667 5.13337 18.6667 5.60004V9.33337H25.2C28 9.33337 30.5667 11.4334 31.0334 14.2334L32.6667 22.8667C32.9 24.5 32.2 26.1334 30.5667 26.8334ZM14 15.1667C14 13.3 12.3667 11.6667 10.5 11.6667C8.63336 11.6667 7.00002 13.3 7.00002 15.1667C7.00002 17.0334 8.63336 18.6667 10.5 18.6667C12.3667 18.6667 14 17.0334 14 15.1667ZM28 15.1667C28 14.4667 27.5334 14 26.8334 14H25.6667V12.8334C25.6667 12.1334 25.2 11.6667 24.5 11.6667C23.8 11.6667 23.3334 12.1334 23.3334 12.8334V14H22.1667C21.4667 14 21 14.4667 21 15.1667C21 15.8667 21.4667 16.3334 22.1667 16.3334H23.3334V17.5C23.3334 18.2 23.8 18.6667 24.5 18.6667C25.2 18.6667 25.6667 18.2 25.6667 17.5V16.3334H26.8334C27.5334 16.3334 28 15.8667 28 15.1667Z" fill="#777777"/>
</g>
</svg>
