<svg width="45" height="45" viewBox="0 0 45 45" fill="none" xmlns="http://www.w3.org/2000/svg">
<g id="iconamoon:home-thin">
<path id="Vector" d="M36.5625 18.75C36.5625 18.5014 36.4637 18.2629 36.2879 18.0871C36.1121 17.9113 35.8736 17.8125 35.625 17.8125C35.3763 17.8125 35.1379 17.9113 34.9621 18.0871C34.7862 18.2629 34.6875 18.5014 34.6875 18.75H36.5625ZM10.3125 18.75C10.3125 18.5014 10.2137 18.2629 10.0379 18.0871C9.86206 17.9113 9.6236 17.8125 9.37496 17.8125C9.12632 17.8125 8.88787 17.9113 8.71205 18.0871C8.53624 18.2629 8.43746 18.5014 8.43746 18.75H10.3125ZM38.7112 23.1637C38.8873 23.3398 39.126 23.4387 39.375 23.4387C39.6239 23.4387 39.8627 23.3398 40.0387 23.1637C40.2148 22.9877 40.3136 22.749 40.3136 22.5C40.3136 22.251 40.2148 22.0123 40.0387 21.8362L38.7112 23.1637ZM22.5 5.625L23.1637 4.96125C23.0766 4.87394 22.9732 4.80467 22.8593 4.75741C22.7454 4.71015 22.6233 4.68582 22.5 4.68582C22.3766 4.68582 22.2545 4.71015 22.1407 4.75741C22.0268 4.80467 21.9233 4.87394 21.8362 4.96125L22.5 5.625ZM4.96121 21.8362C4.78518 22.0123 4.68628 22.251 4.68628 22.5C4.68628 22.749 4.78518 22.9877 4.96121 23.1637C5.13725 23.3398 5.37601 23.4387 5.62496 23.4387C5.87392 23.4387 6.11268 23.3398 6.28871 23.1637L4.96121 21.8362ZM13.125 40.3125H31.875V38.4375H13.125V40.3125ZM36.5625 35.625V18.75H34.6875V35.625H36.5625ZM10.3125 35.625V18.75H8.43746V35.625H10.3125ZM40.0387 21.8362L23.1637 4.96125L21.8362 6.28875L38.7112 23.1637L40.0387 21.8362ZM21.8362 4.96125L4.96121 21.8362L6.28871 23.1637L23.1637 6.28875L21.8362 4.96125ZM31.875 40.3125C33.1182 40.3125 34.3105 39.8186 35.1895 38.9396C36.0686 38.0605 36.5625 36.8682 36.5625 35.625H34.6875C34.6875 36.3709 34.3911 37.0863 33.8637 37.6137C33.3363 38.1412 32.6209 38.4375 31.875 38.4375V40.3125ZM13.125 38.4375C12.379 38.4375 11.6637 38.1412 11.1362 37.6137C10.6088 37.0863 10.3125 36.3709 10.3125 35.625H8.43746C8.43746 36.8682 8.93132 38.0605 9.8104 38.9396C10.6895 39.8186 11.8818 40.3125 13.125 40.3125V38.4375Z" fill="#050505"/>
</g>
</svg>
