<svg width="13" height="13" viewBox="0 0 13 13" fill="none" xmlns="http://www.w3.org/2000/svg">
<g id="game-icons:sands-of-time">
<path id="Vector" d="M2.92152 0.557861V0.795086C2.92152 3.38374 3.89038 5.61037 5.36773 6.43417V6.5889C3.89035 7.41269 2.9215 9.63933 2.9215 12.228V12.4653H10.2022V12.228C10.2022 9.62414 9.21695 7.39683 7.72586 6.58651V6.43655C9.21685 5.62616 10.2022 3.39882 10.2022 0.795061V0.557861H2.92145H2.92152ZM3.40235 1.03229H9.72144C9.65855 3.48108 8.63619 5.48892 7.38707 6.08263L7.25141 6.14692V6.87693L7.3871 6.94117C8.63614 7.53487 9.65844 9.54213 9.72144 11.9908H3.40235C3.46471 9.55584 4.47193 7.54541 5.70972 6.93959L5.84302 6.87454V6.14852L5.70972 6.08347C4.47198 5.47765 3.46468 3.4672 3.40235 1.03229ZM8.82721 3.21905C7.36453 3.92517 5.66541 3.92593 4.3188 3.32303C4.69087 4.61554 5.43131 5.53549 6.30246 5.68753C6.26182 5.7412 6.2398 5.80667 6.23975 5.874C6.23975 6.04564 6.37909 6.18503 6.55078 6.18503C6.72248 6.18503 6.86182 6.04564 6.86182 5.874C6.86182 5.80493 6.83879 5.74151 6.80073 5.68992C7.70022 5.54062 8.46351 4.57093 8.82721 3.21905ZM6.55078 6.5667C6.37909 6.5667 6.23975 6.70605 6.23975 6.87774C6.23975 7.04943 6.37909 7.18878 6.55078 7.18878C6.72248 7.18878 6.86182 7.04943 6.86182 6.87774C6.86182 6.70605 6.72248 6.5667 6.55078 6.5667ZM6.55078 7.56405C6.37909 7.56405 6.23975 7.70344 6.23975 7.87508C6.23975 8.0468 6.37909 8.18612 6.55078 8.18612C6.72248 8.18612 6.86182 8.0468 6.86182 7.87508C6.86182 7.70344 6.72248 7.56405 6.55078 7.56405ZM6.55078 8.56782C6.37909 8.56782 6.23975 8.70716 6.23975 8.87885C6.23975 9.05049 6.37909 9.18989 6.55078 9.18989C6.72248 9.18989 6.86182 9.05049 6.86182 8.87885C6.86182 8.70716 6.72248 8.56782 6.55078 8.56782ZM6.55396 9.58105C5.96464 9.58816 5.38116 10.2354 4.62902 11.502H8.51378C7.73879 10.207 7.14327 9.57395 6.55396 9.58105Z" fill="black"/>
</g>
</svg>
