<svg width="20" height="20" viewBox="0 0 20 20" fill="none" xmlns="http://www.w3.org/2000/svg">
<path d="M17.5 13.75V11.875C17.5 10.5 16.375 9.375 15 9.375C13.625 9.375 12.5 10.5 12.5 11.875V13.75C11.8125 13.75 11.25 14.3125 11.25 15V18.125C11.25 18.8125 11.8125 19.375 12.5 19.375H17.5C18.1875 19.375 18.75 18.8125 18.75 18.125V15C18.75 14.3125 18.1875 13.75 17.5 13.75ZM13.75 11.875C13.75 11.1875 14.3125 10.625 15 10.625C15.6875 10.625 16.25 11.1875 16.25 11.875V13.75H13.75V11.875ZM12.5 18.125V15H17.5V18.125H12.5ZM5 10H8.75V11.25H5V10ZM5 6.25H12.5V7.5H5V6.25Z" fill="#FF4105"/>
<path d="M16.25 2.5C16.25 1.8125 15.6875 1.25 15 1.25H2.5C1.8125 1.25 1.25 1.8125 1.25 2.5V10.625C1.25 13.1875 2.625 15.5 4.875 16.6875L8.125 18.4375V17L5.5 15.5625C3.625 14.625 2.5 12.6875 2.5 10.625V2.5H15V7.5H16.25V2.5Z" fill="#FF4105"/>
</svg>
