<svg width="25" height="25" viewBox="0 0 25 25" fill="none" xmlns="http://www.w3.org/2000/svg">
<g id="ph:share">
<path id="Vector" d="M22.4277 10.7089L17.7402 15.3964C17.5936 15.543 17.3948 15.6254 17.1875 15.6254C16.9802 15.6254 16.7814 15.543 16.6348 15.3964C16.4882 15.2498 16.4058 15.051 16.4058 14.8437C16.4058 14.6364 16.4882 14.4376 16.6348 14.291L19.9893 10.9374H16.1133C14.2077 10.9369 12.3559 11.5698 10.8493 12.7365C9.34259 13.9032 8.26644 15.5377 7.79004 17.3828C7.73824 17.5835 7.60882 17.7554 7.43026 17.8607C7.2517 17.966 7.03862 17.9961 6.83789 17.9443C6.63717 17.8925 6.46524 17.7631 6.35993 17.5845C6.25463 17.4059 6.22457 17.1929 6.27637 16.9921C6.83849 14.811 8.11012 12.8788 9.89101 11.4998C11.6719 10.1207 13.8609 9.37324 16.1133 9.37495H19.9912L16.6348 6.02143C16.5622 5.94884 16.5046 5.86267 16.4653 5.76783C16.426 5.673 16.4058 5.57135 16.4058 5.4687C16.4058 5.36604 16.426 5.2644 16.4653 5.16956C16.5046 5.07472 16.5622 4.98855 16.6348 4.91596C16.7814 4.76937 16.9802 4.68701 17.1875 4.68701C17.2902 4.68701 17.3918 4.70723 17.4866 4.74651C17.5815 4.7858 17.6676 4.84338 17.7402 4.91596L22.4277 9.60346C22.5004 9.67602 22.558 9.76218 22.5973 9.85702C22.6366 9.95187 22.6569 10.0535 22.6569 10.1562C22.6569 10.2589 22.6366 10.3605 22.5973 10.4554C22.558 10.5502 22.5004 10.6364 22.4277 10.7089ZM18.75 20.3124H3.90625V8.5937C3.90625 8.3865 3.82394 8.18778 3.67743 8.04127C3.53091 7.89476 3.3322 7.81245 3.125 7.81245C2.9178 7.81245 2.71909 7.89476 2.57257 8.04127C2.42606 8.18778 2.34375 8.3865 2.34375 8.5937V20.3124C2.34375 20.7268 2.50837 21.1243 2.8014 21.4173C3.09442 21.7103 3.49185 21.8749 3.90625 21.8749H18.75C18.9572 21.8749 19.1559 21.7926 19.3024 21.6461C19.4489 21.4996 19.5312 21.3009 19.5312 21.0937C19.5312 20.8865 19.4489 20.6878 19.3024 20.5413C19.1559 20.3948 18.9572 20.3124 18.75 20.3124Z" fill="#777777"/>
</g>
</svg>
