<svg width="22" height="22" viewBox="0 0 22 22" fill="none" xmlns="http://www.w3.org/2000/svg">
<g id="gridicons:add-outline">
<path id="Vector" d="M11 3.66671C15.0434 3.66671 18.3333 6.95662 18.3333 11C18.3333 15.0435 15.0434 18.3334 11 18.3334C6.95656 18.3334 3.66665 15.0435 3.66665 11C3.66665 6.95662 6.95656 3.66671 11 3.66671ZM11 1.83337C5.93723 1.83337 1.83331 5.93729 1.83331 11C1.83331 16.0628 5.93723 20.1667 11 20.1667C16.0627 20.1667 20.1666 16.0628 20.1666 11C20.1666 5.93729 16.0627 1.83337 11 1.83337ZM15.5833 10.0834H11.9166V6.41671H10.0833V10.0834H6.41665V11.9167H10.0833V15.5834H11.9166V11.9167H15.5833V10.0834Z" fill="black"/>
</g>
</svg>
