<svg width="35" height="35" viewBox="0 0 35 35" fill="none" xmlns="http://www.w3.org/2000/svg">
<g id="fluent-mdl2:decision-solid" clip-path="url(#clip0_391_4434)">
<path id="Vector" d="M8.37402 22.9519C8.08919 22.9519 7.81576 22.8949 7.55371 22.781C7.29167 22.667 7.05241 22.5075 6.83594 22.3025L0.632324 16.0988C0.210775 15.6773 0 15.1646 0 14.5608C0 14.2531 0.0569661 13.9683 0.170898 13.7063C0.284831 13.4442 0.438639 13.2163 0.632324 13.0227C0.826009 12.829 1.05957 12.6752 1.33301 12.5612C1.60645 12.4473 1.89128 12.3903 2.1875 12.3903C2.48372 12.3903 2.76286 12.4416 3.0249 12.5441C3.28695 12.6467 3.5262 12.8062 3.74268 13.0227L9.9292 19.2092C10.1343 19.4143 10.2881 19.6478 10.3906 19.9099C10.4932 20.1719 10.5501 20.4567 10.5615 20.7644C10.5615 21.0606 10.5046 21.3397 10.3906 21.6018C10.2767 21.8638 10.1229 22.0974 9.9292 22.3025C9.73551 22.5075 9.50195 22.667 9.22852 22.781C8.95508 22.8949 8.67025 22.9519 8.37402 22.9519ZM20.7471 10.5788C20.4622 10.5788 20.1888 10.5219 19.9268 10.4079C19.6647 10.294 19.4255 10.1345 19.209 9.9294L13.0225 3.74288C12.5895 3.30994 12.373 2.79154 12.373 2.1877C12.373 1.88009 12.43 1.59526 12.5439 1.33321C12.6579 1.07117 12.8117 0.843302 13.0054 0.649617C13.1991 0.455933 13.4326 0.296427 13.7061 0.171102C13.9795 0.0457764 14.2643 -0.0111898 14.5605 0.000203451C15.1644 0.000203451 15.6771 0.210978 16.0986 0.632528L22.3022 6.83614C22.5073 7.04122 22.6611 7.27478 22.7637 7.53682C22.8662 7.79887 22.9232 8.0837 22.9346 8.39132C22.9346 8.68754 22.8776 8.96667 22.7637 9.22872C22.6497 9.49076 22.4959 9.72432 22.3022 9.9294C22.1086 10.1345 21.875 10.294 21.6016 10.4079C21.3281 10.5219 21.0433 10.5788 20.7471 10.5788ZM11.8604 17.2609L5.67383 11.0744L11.0742 5.67403L17.2607 11.8606L11.8604 17.2609ZM33.1201 31.5822C33.3366 31.7987 33.4448 32.0551 33.4448 32.3513C33.4448 32.6475 33.3366 32.9039 33.1201 33.1203C32.9036 33.3368 32.6473 33.445 32.3511 33.445C32.0549 33.445 31.7985 33.3368 31.582 33.1203L15.3296 16.885L16.8848 15.3298L33.1201 31.5822ZM0 32.8127H17.5V35.0002H0V32.8127ZM2.1875 28.4377H15.3125V30.6252H2.1875V28.4377Z" fill="#777777"/>
</g>
<defs>
<clipPath id="clip0_391_4434">
<rect width="35" height="35" fill="white"/>
</clipPath>
</defs>
</svg>
