<svg width="28" height="28" viewBox="0 0 28 28" fill="none" xmlns="http://www.w3.org/2000/svg">
<g id="promotion">
<path id="Vector" d="M17.414 2.39621L9.65244 6.12195C9.0551 6.40868 8.41684 6.48052 7.76621 6.33476C7.3404 6.23937 7.12747 6.19168 6.95602 6.1721C4.827 5.92898 3.5 7.614 3.5 9.55166V10.615C3.5 12.5527 4.827 14.2377 6.95602 13.9946C7.12747 13.975 7.34041 13.9273 7.76621 13.832C8.41684 13.6861 9.0551 13.758 9.65244 14.0448L17.414 17.7705C19.1956 18.6258 20.0865 19.0534 21.0798 18.7201C22.073 18.3867 22.4139 17.6715 23.0958 16.241C24.9681 12.3131 24.9681 7.85367 23.0958 3.92563C22.4139 2.49518 22.073 1.77995 21.0798 1.44663C20.0865 1.11331 19.1956 1.54094 17.414 2.39621Z" stroke="black" stroke-width="1.5" stroke-linecap="round" stroke-linejoin="round"/>
<path id="Vector_2" d="M13.3678 24.2327L11.6279 25.6667C7.706 22.5562 8.18513 21.0729 8.18513 15.1667H9.50793C10.0447 18.5044 11.311 20.0853 13.0581 21.2298C14.1344 21.9347 14.3563 23.4179 13.3678 24.2327Z" stroke="black" stroke-width="1.5" stroke-linecap="round" stroke-linejoin="round"/>
<path id="Vector_3" d="M8.75 14.5833V7.58334" stroke="black" stroke-width="1.5" stroke-linecap="round" stroke-linejoin="round"/>
</g>
</svg>
