<svg width="35" height="35" viewBox="0 0 35 35" fill="none" xmlns="http://www.w3.org/2000/svg">
<g id="formkit:help">
<path id="Vector" d="M17.5 32.8125C9.05625 32.8125 2.1875 25.9438 2.1875 17.5C2.1875 9.05625 9.05625 2.1875 17.5 2.1875C25.9438 2.1875 32.8125 9.05625 32.8125 17.5C32.8125 25.9438 25.9438 32.8125 17.5 32.8125ZM17.5 4.375C10.2594 4.375 4.375 10.2594 4.375 17.5C4.375 24.7406 10.2594 30.625 17.5 30.625C24.7406 30.625 30.625 24.7406 30.625 17.5C30.625 10.2594 24.7406 4.375 17.5 4.375Z" fill="#777777"/>
<path id="Vector_2" d="M17.5 9.84375C15.0719 9.84375 13.125 11.7906 13.125 14.2188H15.3125C15.3125 13.0156 16.2969 12.0312 17.5 12.0312C18.7031 12.0312 19.6875 13.0156 19.6875 14.2188C19.6875 16.4062 16.4062 16.1438 16.4062 19.6875H18.5938C18.5938 17.2375 21.875 16.9531 21.875 14.2188C21.875 11.7906 19.9281 9.84375 17.5 9.84375Z" fill="#777777"/>
<path id="Vector_3" d="M17.5 25.4187C18.249 25.4187 18.8562 24.8115 18.8562 24.0625C18.8562 23.3135 18.249 22.7062 17.5 22.7062C16.751 22.7062 16.1437 23.3135 16.1437 24.0625C16.1437 24.8115 16.751 25.4187 17.5 25.4187Z" fill="#777777"/>
<path id="Vector_4" d="M14.2188 15.3125C14.8228 15.3125 15.3125 14.8228 15.3125 14.2188C15.3125 13.6147 14.8228 13.125 14.2188 13.125C13.6147 13.125 13.125 13.6147 13.125 14.2188C13.125 14.8228 13.6147 15.3125 14.2188 15.3125Z" fill="#777777"/>
<path id="Vector_5" d="M17.5 20.7812C18.1041 20.7812 18.5938 20.2916 18.5938 19.6875C18.5938 19.0834 18.1041 18.5938 17.5 18.5938C16.8959 18.5938 16.4062 19.0834 16.4062 19.6875C16.4062 20.2916 16.8959 20.7812 17.5 20.7812Z" fill="#777777"/>
</g>
</svg>
