<svg width="40" height="40" viewBox="0 0 40 40" fill="none" xmlns="http://www.w3.org/2000/svg">
<g id="iconamoon:search-light">
<path id="Vector" d="M35 35.0001L27.7616 27.7618M27.7616 27.7618C28.9998 26.5236 29.9819 25.0537 30.652 23.436C31.3221 21.8183 31.667 20.0844 31.667 18.3334C31.667 16.5824 31.3221 14.8486 30.652 13.2309C29.9819 11.6131 28.9998 10.1432 27.7616 8.9051C26.5235 7.66695 25.0536 6.6848 23.4359 6.01472C21.8182 5.34464 20.0843 4.99976 18.3333 4.99976C16.5823 4.99976 14.8484 5.34464 13.2307 6.01472C11.613 6.6848 10.1431 7.66695 8.90498 8.9051C6.40443 11.4056 4.99963 14.7971 4.99963 18.3334C4.99963 21.8697 6.40443 25.2612 8.90498 27.7618C11.4055 30.2623 14.797 31.6671 18.3333 31.6671C21.8696 31.6671 25.2611 30.2623 27.7616 27.7618Z" stroke="#777777" stroke-width="1.5" stroke-linecap="round" stroke-linejoin="round"/>
</g>
</svg>
