<svg width="35" height="35" viewBox="0 0 35 35" fill="none" xmlns="http://www.w3.org/2000/svg">
<g id="fluent:sport-american-football-24-regular">
<path id="Vector" d="M20.0083 13.4458C20.1084 13.3383 20.2292 13.2521 20.3633 13.1924C20.4975 13.1326 20.6423 13.1004 20.7892 13.0978C20.9361 13.0953 21.0819 13.1223 21.2181 13.1773C21.3543 13.2323 21.478 13.3142 21.5819 13.418C21.6857 13.5219 21.7676 13.6456 21.8226 13.7818C21.8776 13.918 21.9047 14.0639 21.9021 14.2107C21.8995 14.3576 21.8673 14.5024 21.8076 14.6366C21.7478 14.7707 21.6616 14.8915 21.5541 14.9916L14.9916 21.5541C14.8915 21.6616 14.7707 21.7478 14.6366 21.8076C14.5024 21.8673 14.3576 21.8995 14.2107 21.9021C14.0639 21.9047 13.918 21.8776 13.7818 21.8226C13.6456 21.7676 13.5219 21.6857 13.418 21.5819C13.3142 21.478 13.2323 21.3543 13.1773 21.2181C13.1223 21.0819 13.0953 20.9361 13.0978 20.7892C13.1004 20.6423 13.1326 20.4975 13.1924 20.3633C13.2521 20.2292 13.3383 20.1084 13.4458 20.0083L20.0083 13.4458ZM25.8854 2.91663C27.5292 2.91663 29.1056 3.56962 30.268 4.73195C31.4303 5.89429 32.0833 7.47075 32.0833 9.11454V10.5729C32.0833 22.4525 22.4525 32.0833 10.5729 32.0833H9.11454C7.47075 32.0833 5.89429 31.4303 4.73195 30.268C3.56962 29.1056 2.91663 27.5292 2.91663 25.8854V24.427C2.91663 12.5475 12.5475 2.91663 24.427 2.91663H25.8854ZM29.8958 9.11454C29.8958 8.05091 29.4733 7.03085 28.7212 6.27875C27.9691 5.52665 26.949 5.10413 25.8854 5.10413H24.427C23.8393 5.10413 23.2575 5.13038 22.6829 5.18142L29.8185 12.317C29.8695 11.7425 29.8958 11.1606 29.8958 10.5729V9.11454ZM29.3897 14.9829L20.017 5.61017C16.4891 6.43991 13.2651 8.24365 10.7121 10.816C8.15908 13.3883 6.37972 16.6259 5.57663 20.16L14.84 29.4233C18.3741 28.6204 21.6118 26.841 24.1841 24.288C26.7565 21.735 28.5602 18.5109 29.3897 14.9829ZM5.16683 22.8447C5.126 23.3668 5.10413 23.8948 5.10413 24.427V25.8854C5.10413 26.949 5.52665 27.9691 6.27875 28.7212C7.03085 29.4733 8.05091 29.8958 9.11454 29.8958H10.5729C11.1052 29.8958 11.6331 29.8739 12.1552 29.8316L5.16683 22.8447Z" fill="#777777"/>
</g>
</svg>
