<svg width="38" height="38" viewBox="0 0 38 38" fill="none" xmlns="http://www.w3.org/2000/svg">
<g id="carbon:condition-point">
<path id="Vector" d="M9.5 19L19 9.5L28.5 19L19 28.5L9.5 19Z" fill="#777777"/>
<path id="Vector_2" d="M34.9006 17.2508L20.7504 3.09819C20.2862 2.63482 19.6571 2.37457 19.0012 2.37457C18.3453 2.37457 17.7162 2.63482 17.252 3.09819L3.09819 17.2508C2.63482 17.715 2.37457 18.3441 2.37457 19C2.37457 19.6559 2.63482 20.285 3.09819 20.7492L17.2508 34.9018C17.715 35.3652 18.3441 35.6254 19 35.6254C19.6559 35.6254 20.285 35.3652 20.7492 34.9018L34.9018 20.7492C35.3652 20.285 35.6254 19.6559 35.6254 19C35.6254 18.3441 35.3652 17.715 34.9018 17.2508H34.9006ZM19 33.2928L4.70844 19L19 4.70726L33.2928 19L19 33.2928Z" fill="#777777"/>
</g>
</svg>
