<svg width="40" height="40" viewBox="0 0 40 40" fill="none" xmlns="http://www.w3.org/2000/svg">
<g clip-path="url(#clip0_2027_25)">
<path d="M39.9647 0C39.4375 10.6977 37.8767 20.5795 33.71 29.8834C30.512 37.025 23.1999 40.7422 14.9538 39.6963C8.17563 38.8366 1.96001 33.0389 0.446883 26.165C-1.24155 18.4947 1.92657 10.4706 8.73079 6.97797C18.3356 2.0475 28.8361 0.644531 39.9647 0Z" fill="white"/>
<mask id="mask0_2027_25" style="mask-type:luminance" maskUnits="userSpaceOnUse" x="0" y="0" width="40" height="40">
<path d="M39.9647 0C39.4375 10.6977 37.8767 20.5795 33.71 29.8834C30.512 37.025 23.1999 40.7422 14.9538 39.6963C8.17563 38.8366 1.96001 33.0389 0.446883 26.165C-1.24155 18.4947 1.92657 10.4706 8.73079 6.97797C18.3356 2.0475 28.8361 0.644531 39.9647 0Z" fill="white"/>
</mask>
<g mask="url(#mask0_2027_25)">
<path d="M17.7797 11.8897C17.7797 11.8897 16.8588 16.9923 16.4922 19.5777C14.6272 18.1241 10.9361 15.4792 10.9361 15.4792C10.9361 15.4792 13.8319 19.3736 15.1992 21.113C12.6016 21.4073 7.39438 22.2181 7.39438 22.2181C7.39438 22.2181 12.7198 23.0747 15.2 23.3614C13.7616 25.1828 10.9228 28.8756 10.9228 28.8756C10.9228 28.8756 14.7792 26.2119 16.512 24.8767C16.8656 27.3548 17.7795 32.6327 17.7795 32.6327C17.7795 32.6327 18.6155 27.3592 18.9333 24.7891C20.6466 26.1244 24.2638 28.9134 24.2638 28.9134C24.2638 28.9134 21.7438 25.1413 20.3639 23.3597C22.8705 23.0653 27.9634 22.2181 27.9634 22.2181C27.9634 22.2181 22.8208 21.3992 20.3822 21.1172C21.6442 19.4067 24.288 15.4773 24.288 15.4773C24.288 15.4773 20.5833 18.3505 18.9302 19.6736C18.6242 17.1202 17.7797 11.8897 17.7797 11.8897ZM39.9688 0.0718765C39.4416 10.7695 37.8808 20.6514 33.7141 29.9555C30.5159 37.0969 23.2039 40.8141 14.9578 39.7681C8.17969 38.9086 1.96407 33.1109 0.450942 26.2369C-1.2375 18.5666 1.93063 10.5425 8.73485 7.04985C18.3397 2.11969 28.8402 0.716564 39.9688 0.0718765Z" fill="#E21708"/>
<path d="M0.967979 16.2345C1.5761 14.4436 2.46485 12.7711 3.61439 11.2977C4.04845 10.7633 4.53079 10.2294 5.06689 9.67891C5.54092 9.219 6.04421 8.79024 6.5736 8.39531C7.06189 8.03906 7.60001 7.68906 8.17751 7.34844C8.3612 7.24441 8.54703 7.14418 8.73485 7.04781C11.0605 5.85406 13.438 4.86719 15.865 4.04781C22.1563 1.92344 28.7747 0.92422 35.653 0.366408C37.3499 0.237189 38.8186 0.152033 39.9688 0.0718765C28.26 2.59735 22.0392 5.08219 14.4633 8.39531C6.88735 11.7084 0.419854 18.9062 0.0770416 20.9672C0.278604 19.1025 0.561573 17.5698 0.967979 16.2345Z" fill="#FA524A" fill-opacity="0.3"/>
<path d="M15.158 40.4816C14.3919 40.3851 13.6333 40.2371 12.8872 40.0384C10.0413 39.2178 7.06751 37.4628 4.69454 34.9025C2.62782 32.6494 1.10282 29.8873 0.450789 26.9258C0.149649 25.559 -0.000107175 24.1633 0.00422655 22.7637C0.0892266 35.2597 14.6908 37.1912 18.5956 37.1912C24.7941 37.1914 24.7167 35.9569 34.3441 29.1858C34.1406 29.6748 33.9306 30.161 33.7141 30.6444C31.4599 35.6783 27.1606 39.0108 21.9317 40.173C20.5594 40.4769 19.1399 40.6312 17.6778 40.6312C16.8357 40.6306 15.9943 40.5806 15.158 40.4816Z" fill="#AE0E10" fill-opacity="0.3"/>
</g>
</g>
<defs>
<clipPath id="clip0_2027_25">
<rect width="40" height="40" fill="white"/>
</clipPath>
</defs>
</svg>
