<svg width="70" height="70" viewBox="0 0 70 70" fill="none" xmlns="http://www.w3.org/2000/svg">
<path d="M44.8 33.0458L41.5917 32.3167L44.1 35.875V46.9292L52.6458 39.8125V27.7083L48.7083 29.1083L44.8 33.0458ZM24.85 33.0458L20.9125 29.1083L17.0042 27.7083V39.8125L25.55 46.9292V35.875L28.0583 32.3167L24.85 33.0458Z" fill="#0A2870"/>
<path d="M38.3833 33.3958H31.2667L29.4875 32.3167L26.6292 36.6042V52.6458L28.7583 55.825L31.2667 58.3333H38.3833L40.8917 55.825L43.0208 52.6458V36.6042L40.1625 32.3167L38.3833 33.3958ZM44.1 53.6958L48.7083 49.0583V44.45L44.1 48.3583V53.6958ZM20.9125 49.0583L25.55 53.6958V48.3583L20.9125 44.45V49.0583ZM32.3167 31.9667H34.125V11.6667H30.1875L27.3583 18.4042L14.4958 17.3542L16.6542 26.2792L31.9667 31.9667H32.3167ZM42.2917 18.4042L39.4625 11.6667H35.525V32.0833H37.9167L53.2292 26.25L55.4167 17.5L42.2917 18.4042Z" fill="#0A2870"/>
<path d="M50.5167 16.6542L45.5 11.6667H40.5125L43.0208 17.3542L50.5167 16.6542ZM29.1083 11.6667H24.1208L19.1333 16.6542L26.6292 17.3542L29.1083 11.6667Z" fill="#0A2870"/>
</svg>
