<svg width="58" height="58" viewBox="0 0 58 58" fill="none" xmlns="http://www.w3.org/2000/svg">
<path d="M50.2063 10.4672L37.0203 28.7735C36.8391 29.0906 36.8391 29.4531 37.0203 29.7703L50.2063 48.9375C50.75 49.7531 49.7531 50.7047 48.9375 50.2063L29.4984 37.2469C29.1813 37.0656 28.8188 37.0656 28.5016 37.2469L9.0625 50.2063C8.24688 50.75 7.29532 49.7531 7.79375 48.9375L20.9797 29.7703C21.1609 29.4531 21.1609 29.0906 20.9797 28.7735L7.79375 10.4672C7.25 9.65158 8.24688 8.70002 9.0625 9.19845L28.5016 21.2516C28.8188 21.4328 29.1813 21.4328 29.4984 21.2516L48.9375 9.19845C49.7531 8.70002 50.7047 9.65158 50.2063 10.4672Z" fill="#F77E00"/>
<path d="M29.9062 2.53749L33.7125 23.6078C33.8031 23.9703 34.075 24.2422 34.3922 24.2875L55.4625 28.0937C56.4141 28.3203 56.4141 29.6797 55.4625 29.8609L34.3469 33.6672C33.9844 33.7578 33.7125 34.0297 33.6672 34.3469L29.9062 55.4625C29.725 56.4141 28.3203 56.4141 28.1391 55.4625L24.3328 34.3469C24.2422 33.9844 23.9703 33.7125 23.6531 33.6672L2.53749 29.9062C1.58593 29.725 1.58593 28.3203 2.53749 28.1391L23.6078 24.3328C23.9703 24.2422 24.2422 23.9703 24.2875 23.6531L28.0937 2.53749C28.3203 1.58593 29.6797 1.58593 29.9062 2.53749Z" fill="#FF9800"/>
<path opacity="0.75" d="M23.857 25.8372C22.833 26.4897 21.0023 26.4897 21.0023 27.2781C21.0023 27.8581 22.0491 27.8581 23.1637 27.8581C24.7452 27.8355 26.0683 27.695 26.7162 27.1603C27.3687 26.6256 27.5772 25.742 27.6452 23.9567C27.7131 21.818 27.55 21.4464 27.0198 21.4464C26.3175 21.4464 25.878 24.582 23.857 25.8372Z" fill="#FFBD52"/>
</svg>
