<svg width="48" height="48" viewBox="0 0 48 48" fill="none" xmlns="http://www.w3.org/2000/svg">
<g clip-path="url(#clip0_2020_66)">
<path d="M47.7518 42.6045C47.7518 45.45 45.4493 47.7495 42.6068 47.7495H5.14725C4.47138 47.7499 3.80206 47.6171 3.17754 47.3587C2.55301 47.1003 1.98553 46.7214 1.50751 46.2436C1.0295 45.7658 0.65032 45.1985 0.391654 44.574C0.132988 43.9496 -9.85975e-05 43.2804 5.48054e-08 42.6045V5.14575C-9.8538e-05 4.46985 0.132983 3.80055 0.39164 3.17609C0.650297 2.55164 1.02946 1.98427 1.50747 1.50641C1.98547 1.02854 2.55295 0.649541 3.17748 0.391066C3.80201 0.132591 4.47135 -0.0002951 5.14725 4.92052e-07H42.6068C45.4493 4.92052e-07 47.7518 2.2995 47.7518 5.14575V42.6045Z" fill="#F6921E"/>
<path d="M8.74588e-07 36.3052V42.5482C-0.000393206 43.2244 0.132393 43.894 0.390778 44.5188C0.649163 45.1436 1.02809 45.7115 1.50591 46.1898C1.98374 46.6682 2.55111 47.0478 3.17564 47.3069C3.80016 47.566 4.46961 47.6996 5.14575 47.7H42.6068C45.4493 47.7 47.7518 45.3945 47.7518 42.549V5.0925C39.5993 34.713 10.2848 36.5903 8.74588e-07 36.3052Z" fill="#D07929"/>
<path d="M18.5625 28.338C20.6527 30.4223 19.428 35.025 15.837 38.619C12.246 42.2108 7.6425 43.434 5.556 41.3423C3.46875 39.2603 4.689 34.6538 8.2815 31.068C11.8725 27.4725 16.479 26.2493 18.5625 28.338ZM29.0152 19.1475C26.9287 17.0618 28.1535 12.456 31.7467 8.86276C35.334 5.27176 39.9398 4.05001 42.0255 6.13726C44.1105 8.22601 42.8902 12.8258 39.297 16.4235C35.706 20.016 31.101 21.2333 29.0152 19.1475ZM29.0152 28.338C31.104 26.2478 35.7067 27.4725 39.2977 31.068C42.891 34.6598 44.1112 39.2588 42.0262 41.3423C39.9405 43.434 35.3377 42.2108 31.7467 38.619C28.1527 35.025 26.928 30.42 29.0152 28.338ZM18.5625 19.1475C16.4767 21.2333 11.8725 20.016 8.2815 16.4235C4.689 12.8258 3.46875 8.22601 5.556 6.13726C7.64175 4.05451 12.246 5.27476 15.837 8.86576C19.428 12.4568 20.652 17.0618 18.5625 19.1475Z" fill="white"/>
</g>
<defs>
<clipPath id="clip0_2020_66">
<rect width="48" height="48" fill="white"/>
</clipPath>
</defs>
</svg>
