<svg width="48" height="48" viewBox="0 0 48 48" fill="none" xmlns="http://www.w3.org/2000/svg">
<path d="M3 24C3 29.8 5.36 35 9.16 38.84L7 41C2.68 36.62 0 30.62 0 24C0 17.38 2.68 11.38 7 6.99999L9.16 9.15999C5.36 13 3 18.22 3 24ZM42 24C41.9997 28.7741 40.103 33.3527 36.7269 36.7283C33.3509 40.104 28.7722 42.0003 23.998 42C19.2238 41.9997 14.6453 40.1029 11.2697 36.7269C7.89401 33.3509 5.99774 28.7721 5.998 23.998C5.99827 19.2238 7.89505 14.6453 11.2711 11.2696C14.6471 7.89399 19.2258 5.99772 24 5.99799C28.7742 5.99825 33.3527 7.89503 36.7283 11.2711C40.104 14.6471 42.0003 19.2258 42 24ZM10 24C10 24.88 10.1 25.72 10.24 26.56C10.6 26.18 10.92 26 11.56 26C12.6 26 12.78 26.42 13.56 27.42C14.34 28.42 15.7 30 17.78 30C19.84 30 21.22 28.42 22 27.42C22.52 26.74 22.78 26.36 23.22 26.16C23.42 26.06 23.66 26 24 26C25 26 25.22 26.42 26 27.42C26.78 28.42 28.16 30 30.22 30C32.3 30 33.66 28.42 34.44 27.42C35.22 26.42 35.4 26 36.44 26C37.08 26 37.4 26.18 37.76 26.56C37.9 25.72 38 24.88 38 24C38 16.28 31.72 9.99999 24 9.99999C16.28 9.99999 10 16.28 10 24ZM41 6.99999L38.84 9.15999C42.64 13 45 18.22 45 24C45 29.8 42.64 35 38.84 38.84L41 41C45.32 36.62 48 30.62 48 24C48 17.38 45.32 11.38 41 6.99999Z" fill="#2F88FF"/>
</svg>
