<svg width="40" height="40" viewBox="0 0 40 40" fill="none" xmlns="http://www.w3.org/2000/svg">
<g id="iconoir:bell-notification">
<path id="Vector" d="M30.2233 18.3333C31.1917 27.2917 35 30 35 30H5C5 30 10 26.445 10 14C10 11.1717 11.0533 8.45834 12.9283 6.45834C14.805 4.45834 17.35 3.33334 20 3.33334C20.5617 3.33334 21.12 3.38334 21.6667 3.48334M22.8833 35C22.5907 35.5056 22.1702 35.9253 21.6641 36.2171C21.1581 36.5088 20.5842 36.6624 20 36.6624C19.4158 36.6624 18.8419 36.5088 18.3359 36.2171C17.8298 35.9253 17.4093 35.5056 17.1167 35M31.6667 13.3333C32.9927 13.3333 34.2645 12.8066 35.2022 11.8689C36.1399 10.9312 36.6667 9.65943 36.6667 8.33334C36.6667 7.00726 36.1399 5.73549 35.2022 4.79781C34.2645 3.86013 32.9927 3.33334 31.6667 3.33334C30.3406 3.33334 29.0688 3.86013 28.1311 4.79781C27.1934 5.73549 26.6667 7.00726 26.6667 8.33334C26.6667 9.65943 27.1934 10.9312 28.1311 11.8689C29.0688 12.8066 30.3406 13.3333 31.6667 13.3333Z" stroke="black" stroke-width="1.5" stroke-linecap="round" stroke-linejoin="round"/>
</g>
</svg>
