<svg width="40" height="40" viewBox="0 0 40 40" fill="none" xmlns="http://www.w3.org/2000/svg">
<g id="ph:bookmark-thin">
<path id="Vector" d="M28.75 5.625H11.25C10.7527 5.625 10.2758 5.82254 9.92417 6.17417C9.57254 6.52581 9.375 7.00272 9.375 7.5V35C9.37506 35.1115 9.40496 35.221 9.46161 35.3171C9.51826 35.4132 9.59959 35.4924 9.69716 35.5464C9.79473 35.6005 9.90498 35.6274 10.0165 35.6245C10.128 35.6215 10.2367 35.5888 10.3313 35.5297L20 29.4875L29.6703 35.5297C29.7692 35.5916 29.8834 35.6246 30 35.625C30.106 35.6247 30.2102 35.5978 30.3031 35.5469C30.4007 35.4928 30.482 35.4135 30.5386 35.3173C30.5952 35.2212 30.6251 35.1116 30.625 35V7.5C30.625 7.00272 30.4275 6.52581 30.0758 6.17417C29.7242 5.82254 29.2473 5.625 28.75 5.625ZM11.25 6.875H28.75C28.9158 6.875 29.0747 6.94085 29.1919 7.05806C29.3092 7.17527 29.375 7.33424 29.375 7.5V26.3719L20.3297 20.7203C20.2304 20.6582 20.1156 20.6253 19.9984 20.6253C19.8813 20.6253 19.7665 20.6582 19.6672 20.7203L10.625 26.3719V7.5C10.625 7.33424 10.6908 7.17527 10.8081 7.05806C10.9253 6.94085 11.0842 6.875 11.25 6.875ZM20.3297 28.2203C20.2304 28.1582 20.1156 28.1253 19.9984 28.1253C19.8813 28.1253 19.7665 28.1582 19.6672 28.2203L10.625 33.8719V27.8469L20 21.9875L29.375 27.8469V33.8719L20.3297 28.2203Z" fill="#504F4F"/>
</g>
</svg>
