<svg width="35" height="35" viewBox="0 0 35 35" fill="none" xmlns="http://www.w3.org/2000/svg">
<g id="material-symbols:person-celebrate-rounded">
<path id="Vector" d="M13.125 29.1666V23.3333C11.8854 23.2361 10.6701 23.1024 9.47917 22.9323C8.28819 22.7621 7.09722 22.5434 5.90625 22.276C5.49306 22.1788 5.16493 21.9479 4.92188 21.5833C4.67882 21.2187 4.61806 20.8298 4.73958 20.4166C4.86111 20.0034 5.11049 19.6996 5.48771 19.5052C5.86493 19.3107 6.25965 19.2621 6.67187 19.3593C8.44618 19.7725 10.239 20.052 12.0502 20.1979C13.8615 20.3437 15.6781 20.4166 17.5 20.4166C19.3229 20.4166 21.14 20.3437 22.9513 20.1979C24.7625 20.052 26.5548 19.7725 28.3281 19.3593C28.7656 19.2621 29.1667 19.3107 29.5312 19.5052C29.8958 19.6996 30.1389 20.0034 30.2604 20.4166C30.3819 20.8298 30.3149 21.2187 30.0592 21.5833C29.8035 21.9479 29.4695 22.1788 29.0573 22.276C27.8663 22.5434 26.6753 22.7621 25.4844 22.9323C24.2934 23.1024 23.0903 23.2361 21.875 23.3333V29.1666C21.875 29.5798 21.7355 29.9264 21.4565 30.2064C21.1774 30.4864 20.8308 30.6259 20.4167 30.625H14.5833C14.1701 30.625 13.8235 30.485 13.5435 30.205C13.2635 29.925 13.124 29.5789 13.125 29.1666ZM17.5 18.9583C16.6736 18.9583 15.9809 18.6788 15.4219 18.1198C14.8628 17.5607 14.5833 16.868 14.5833 16.0416C14.5833 15.2395 14.8628 14.5527 15.4219 13.981C15.9809 13.4093 16.6736 13.124 17.5 13.125C18.3021 13.125 18.989 13.4108 19.5606 13.9825C20.1323 14.5541 20.4176 15.2405 20.4167 16.0416C20.4167 16.868 20.1308 17.5607 19.5592 18.1198C18.9875 18.6788 18.3011 18.9583 17.5 18.9583ZM6.5625 14.5833C5.93056 14.5833 5.40799 14.3767 4.99479 13.9635C4.5816 13.5503 4.375 13.0277 4.375 12.3958C4.375 11.7882 4.5816 11.2714 4.99479 10.8456C5.40799 10.4198 5.93056 10.2073 6.5625 10.2083C7.17014 10.2083 7.68688 10.4212 8.11271 10.847C8.53854 11.2729 8.75097 11.7891 8.75 12.3958C8.75 13.0277 8.53708 13.5503 8.11125 13.9635C7.68542 14.3767 7.16917 14.5833 6.5625 14.5833ZM28.4375 14.5833C27.8056 14.5833 27.283 14.3767 26.8698 13.9635C26.4566 13.5503 26.25 13.0277 26.25 12.3958C26.25 11.7882 26.4566 11.2714 26.8698 10.8456C27.283 10.4198 27.8056 10.2073 28.4375 10.2083C29.0451 10.2083 29.5619 10.4212 29.9877 10.847C30.4135 11.2729 30.626 11.7891 30.625 12.3958C30.625 13.0277 30.4121 13.5503 29.9863 13.9635C29.5604 14.3767 29.0442 14.5833 28.4375 14.5833ZM10.5729 9.11455C9.94097 9.11455 9.4184 8.90795 9.00521 8.49475C8.59201 8.08156 8.38542 7.55899 8.38542 6.92705C8.38542 6.31941 8.59201 5.80267 9.00521 5.37684C9.4184 4.951 9.94097 4.73857 10.5729 4.73955C11.1806 4.73955 11.6973 4.95246 12.1231 5.3783C12.549 5.80413 12.7614 6.32038 12.7604 6.92705C12.7604 7.55899 12.5475 8.08156 12.1217 8.49475C11.6958 8.90795 11.1796 9.11455 10.5729 9.11455ZM24.4271 9.11455C23.7951 9.11455 23.2726 8.90795 22.8594 8.49475C22.4462 8.08156 22.2396 7.55899 22.2396 6.92705C22.2396 6.31941 22.4462 5.80267 22.8594 5.37684C23.2726 4.951 23.7951 4.73857 24.4271 4.73955C25.0347 4.73955 25.5515 4.95246 25.9773 5.3783C26.4031 5.80413 26.6156 6.32038 26.6146 6.92705C26.6146 7.55899 26.4017 8.08156 25.9758 8.49475C25.55 8.90795 25.0338 9.11455 24.4271 9.11455ZM17.5 7.29163C16.8681 7.29163 16.3455 7.08503 15.9323 6.67184C15.5191 6.25864 15.3125 5.73607 15.3125 5.10413C15.3125 4.49649 15.5191 3.97975 15.9323 3.55392C16.3455 3.12809 16.8681 2.91566 17.5 2.91663C18.1076 2.91663 18.6244 3.12955 19.0502 3.55538C19.476 3.98121 19.6885 4.49746 19.6875 5.10413C19.6875 5.73607 19.4746 6.25864 19.0488 6.67184C18.6229 7.08503 18.1067 7.29163 17.5 7.29163Z" fill="#777777"/>
</g>
</svg>
