<svg width="45" height="45" viewBox="0 0 45 45" fill="none" xmlns="http://www.w3.org/2000/svg">
<path d="M16.9805 36.3692L4.44731 23.9028C4.37503 23.8309 4.31767 23.7454 4.27853 23.6513C4.23939 23.5572 4.21924 23.4563 4.21924 23.3543C4.21924 23.2524 4.23939 23.1515 4.27853 23.0573C4.31767 22.9632 4.37503 22.8778 4.44731 22.8059L7.61137 19.6383C7.91372 19.336 8.40239 19.336 8.70473 19.6383L16.9559 27.8403C17.2582 28.1426 17.7504 28.1391 18.0528 27.8367L36.2848 9.42893C36.5872 9.12307 37.0793 9.12307 37.3852 9.42542L40.5528 12.593C40.8551 12.8953 40.8551 13.384 40.5563 13.6864L20.693 33.7289L20.6965 33.7324L18.0774 36.3657C17.775 36.668 17.2829 36.668 16.9805 36.3692Z" fill="#40C0E7" stroke="#40C0E7" stroke-width="6" stroke-miterlimit="10"/>
</svg>
