<svg width="35" height="35" viewBox="0 0 35 35" fill="none" xmlns="http://www.w3.org/2000/svg">
<g id="fluent:style-guide-24-regular">
<path id="Vector" d="M20.4662 4.05126C20.975 3.91498 21.5056 3.88024 22.0278 3.94903C22.5499 4.01782 23.0534 4.18879 23.5095 4.45218C23.9656 4.71558 24.3654 5.06623 24.686 5.48412C25.0065 5.90201 25.2416 6.37896 25.3779 6.88772L29.3416 21.6781C29.4779 22.1869 29.5127 22.7175 29.4439 23.2397C29.3751 23.7619 29.2041 24.2654 28.9407 24.7215C28.6773 25.1776 28.3267 25.5773 27.9088 25.8979C27.4909 26.2184 27.0139 26.4536 26.5052 26.5898L17.3498 29.0427C16.3225 29.318 15.2279 29.174 14.3068 28.6423C13.3857 28.1107 12.7135 27.2349 12.4381 26.2077L8.47288 11.4158C8.33662 10.907 8.30194 10.3763 8.37082 9.85404C8.43971 9.33179 8.61081 8.82823 8.87434 8.37211C9.13788 7.916 9.4887 7.51628 9.90675 7.19577C10.3248 6.87527 10.8019 6.64026 11.3108 6.50418L20.4662 4.05126ZM8.45975 17.0013L11.0293 26.584C11.282 27.5333 11.787 28.3965 12.4906 29.0821L11.8445 29.0486C10.7825 28.9928 9.78609 28.5174 9.07449 27.7271C8.36288 26.9367 7.99436 25.896 8.04996 24.834L8.45975 17.0027V17.0013ZM21.032 6.16439L11.8766 8.6173C11.6454 8.67924 11.4286 8.78613 11.2386 8.93186C11.0487 9.07759 10.8893 9.25931 10.7696 9.46664C10.6499 9.67397 10.5722 9.90285 10.5409 10.1402C10.5097 10.3776 10.5255 10.6188 10.5875 10.85L14.5512 25.6404C14.6763 26.1072 14.9816 26.5051 15.4 26.7468C15.8184 26.9886 16.3156 27.0543 16.7825 26.9296L25.9393 24.4767C26.1706 24.4147 26.3874 24.3079 26.5773 24.1621C26.7673 24.0164 26.9267 23.8347 27.0464 23.6273C27.1661 23.42 27.2438 23.1911 27.275 22.9538C27.3063 22.7164 27.2905 22.4752 27.2285 22.244L23.2648 7.45355C23.1396 6.98683 22.8344 6.58887 22.416 6.34714C21.9976 6.10541 21.5003 6.03967 21.0335 6.16439H21.032ZM7.1108 14.8458L6.59309 24.7567C6.53913 25.7761 6.76809 26.7444 7.21142 27.5858L6.60767 27.3525C6.11595 27.1638 5.66622 26.8801 5.28415 26.5175C4.90209 26.155 4.59517 25.7208 4.38094 25.2396C4.1667 24.7585 4.04934 24.2398 4.03555 23.7133C4.02177 23.1868 4.11183 22.6628 4.30059 22.1711L7.1108 14.8458ZM14.2041 10.2594C14.3891 10.2098 14.5821 10.1971 14.772 10.2221C14.9619 10.247 15.145 10.3092 15.3109 10.4049C15.4768 10.5007 15.6222 10.6281 15.7388 10.7801C15.8554 10.932 15.941 11.1054 15.9906 11.2904C16.0402 11.4754 16.0529 11.6684 16.0279 11.8583C16.0029 12.0482 15.9408 12.2313 15.8451 12.3972C15.7493 12.5631 15.6218 12.7085 15.4699 12.8251C15.318 12.9417 15.1445 13.0273 14.9595 13.0769C14.5859 13.1771 14.1878 13.1247 13.8528 12.9314C13.5178 12.738 13.2733 12.4195 13.1731 12.0458C13.0729 11.6722 13.1253 11.2741 13.3186 10.9391C13.512 10.6041 13.8305 10.3596 14.2041 10.2594Z" fill="#777777"/>
</g>
</svg>
