<svg width="38" height="38" viewBox="0 0 38 38" fill="none" xmlns="http://www.w3.org/2000/svg">
<g id="mdi:fish-food-outline">
<path id="Vector" d="M26.7267 6.33336L30.1308 9.65836L21.375 16.625L19.7917 15.0417L26.7108 6.33336H26.7267ZM26.7267 3.1667C26.2588 3.1636 25.796 3.26423 25.3717 3.46135C24.9473 3.65847 24.5719 3.94717 24.2725 4.3067L15.5167 15.2792L21.1217 20.8842L32.11 12.1442C33.535 10.9409 33.6458 8.77169 32.3158 7.44169L28.975 4.10086C28.3417 3.46753 27.5342 3.1667 26.7267 3.1667ZM14.4083 16.4034L13.2842 17.5275C12.9873 17.8296 12.821 18.2361 12.821 18.6596C12.821 19.0831 12.9873 19.4897 13.2842 19.7917L16.625 23.1167C16.9575 23.4334 17.3533 23.5759 17.765 23.5759C18.1767 23.5759 18.5725 23.4334 18.8892 23.1167L19.9975 22.0084L14.4083 16.4034ZM9.5 23.75C8.62917 23.75 7.91667 24.4625 7.91667 25.3334C7.91667 26.2042 8.62917 26.9167 9.5 26.9167C10.3708 26.9167 11.0833 26.2042 11.0833 25.3334C11.0833 24.4625 10.3708 23.75 9.5 23.75ZM14.25 25.3334C13.3792 25.3334 12.6667 26.0459 12.6667 26.9167C12.6667 27.7875 13.3792 28.5 14.25 28.5C15.1208 28.5 15.8333 27.7875 15.8333 26.9167C15.8333 26.0459 15.1208 25.3334 14.25 25.3334ZM6.33333 28.5C5.4625 28.5 4.75 29.2125 4.75 30.0834C4.75 30.9542 5.4625 31.6667 6.33333 31.6667C7.20417 31.6667 7.91667 30.9542 7.91667 30.0834C7.91667 29.2125 7.20417 28.5 6.33333 28.5ZM11.0833 30.0834C10.2125 30.0834 9.5 30.7959 9.5 31.6667C9.5 32.5375 10.2125 33.25 11.0833 33.25C11.9542 33.25 12.6667 32.5375 12.6667 31.6667C12.6667 30.7959 11.9542 30.0834 11.0833 30.0834Z" fill="#777777"/>
</g>
</svg>
