<svg width="45" height="45" viewBox="0 0 45 45" fill="none" xmlns="http://www.w3.org/2000/svg">
<g id="system-uicons:notification">
<g id="Group">
<path id="Vector" d="M37.5 18.2143V33.2143C37.5 34.3509 37.0485 35.441 36.2448 36.2447C35.4411 37.0485 34.351 37.5 33.2143 37.5H11.8779C10.7446 37.5 9.65742 37.0511 8.85424 36.2516C8.05107 35.452 7.59729 34.3669 7.59219 33.2336L7.50004 11.805C7.49492 10.6687 7.94124 9.57692 8.74089 8.76964C9.54054 7.96235 10.6281 7.50567 11.7643 7.5H26.7858" stroke="#777777" stroke-linecap="round" stroke-linejoin="round"/>
<path id="Vector_2" d="M36.4287 12.8571C38.7956 12.8571 40.7144 10.9384 40.7144 8.57142C40.7144 6.20449 38.7956 4.28571 36.4287 4.28571C34.0617 4.28571 32.1429 6.20449 32.1429 8.57142C32.1429 10.9384 34.0617 12.8571 36.4287 12.8571Z" fill="#777777" stroke="#777777" stroke-linecap="round" stroke-linejoin="round"/>
</g>
</g>
</svg>
