<svg width="40" height="40" viewBox="0 0 40 40" fill="none" xmlns="http://www.w3.org/2000/svg">
<g id="ph:dot-bold">
<path id="Vector" d="M22.5 20C22.5 20.4945 22.3534 20.9778 22.0787 21.3889C21.804 21.8 21.4135 22.1205 20.9567 22.3097C20.4999 22.4989 19.9972 22.5484 19.5123 22.452C19.0273 22.3555 18.5819 22.1174 18.2322 21.7678C17.8826 21.4181 17.6445 20.9727 17.548 20.4877C17.4516 20.0028 17.5011 19.5001 17.6903 19.0433C17.8795 18.5865 18.2 18.196 18.6111 17.9213C19.0222 17.6466 19.5055 17.5 20 17.5C20.663 17.5 21.2989 17.7634 21.7678 18.2322C22.2366 18.7011 22.5 19.337 22.5 20Z" fill="#777777"/>
</g>
</svg>
