<svg width="28" height="28" viewBox="0 0 28 28" fill="none" xmlns="http://www.w3.org/2000/svg">
<g id="ph:bookmark-thin">
<path id="Vector" d="M20.125 3.9375H7.875C7.5269 3.9375 7.19306 4.07578 6.94692 4.32192C6.70078 4.56806 6.5625 4.9019 6.5625 5.25V24.5C6.56254 24.5781 6.58347 24.6547 6.62313 24.722C6.66278 24.7892 6.71971 24.8447 6.78801 24.8825C6.85631 24.9203 6.93349 24.9392 7.01154 24.9371C7.08959 24.9351 7.16567 24.9122 7.23188 24.8708L14 20.6413L20.7692 24.8708C20.8384 24.9141 20.9184 24.9372 21 24.9375C21.0742 24.9373 21.1471 24.9185 21.2122 24.8828C21.2805 24.8449 21.3374 24.7894 21.377 24.7221C21.4167 24.6548 21.4375 24.5781 21.4375 24.5V5.25C21.4375 4.9019 21.2992 4.56806 21.0531 4.32192C20.8069 4.07578 20.4731 3.9375 20.125 3.9375ZM7.875 4.8125H20.125C20.241 4.8125 20.3523 4.85859 20.4344 4.94064C20.5164 5.02269 20.5625 5.13397 20.5625 5.25V18.4603L14.2308 14.5042C14.1612 14.4608 14.0809 14.4377 13.9989 14.4377C13.9169 14.4377 13.8366 14.4608 13.767 14.5042L7.4375 18.4603V5.25C7.4375 5.13397 7.48359 5.02269 7.56564 4.94064C7.64769 4.85859 7.75897 4.8125 7.875 4.8125ZM14.2308 19.7542C14.1612 19.7108 14.0809 19.6877 13.9989 19.6877C13.9169 19.6877 13.8366 19.7108 13.767 19.7542L7.4375 23.7103V19.4928L14 15.3913L20.5625 19.4928V23.7103L14.2308 19.7542Z" fill="#8B8B8B"/>
</g>
</svg>
