<svg width="25" height="25" viewBox="0 0 25 25" fill="none" xmlns="http://www.w3.org/2000/svg">
<g id="teenyicons:google-streetview-outline" clip-path="url(#clip0_1274_653)">
<path id="Vector" d="M7.5 19.1667H6.66667C6.66667 19.3877 6.75446 19.5996 6.91074 19.7559C7.06702 19.9122 7.27899 20 7.5 20V19.1667ZM17.5 19.1667V20C17.721 20 17.933 19.9122 18.0893 19.7559C18.2455 19.5996 18.3333 19.3877 18.3333 19.1667H17.5ZM7.5 20H17.5V18.3333H7.5V20ZM18.3333 19.1667V15.8333H16.6667V19.1667H18.3333ZM6.66667 15.8333V19.1667H8.33333V15.8333H6.66667ZM12.5 10C10.9529 10 9.46917 10.6146 8.37521 11.7085C7.28125 12.8025 6.66667 14.2862 6.66667 15.8333H8.33333C8.33333 14.7283 8.77232 13.6685 9.55372 12.8871C10.3351 12.1057 11.3949 11.6667 12.5 11.6667V10ZM18.3333 15.8333C18.3333 14.2862 17.7188 12.8025 16.6248 11.7085C15.5308 10.6146 14.0471 10 12.5 10V11.6667C13.6051 11.6667 14.6649 12.1057 15.4463 12.8871C16.2277 13.6685 16.6667 14.7283 16.6667 15.8333H18.3333ZM23.3333 19.1667C23.3333 19.575 23.1433 20.0333 22.6567 20.5267C22.1667 21.025 21.415 21.51 20.4217 21.9367C18.4367 22.7867 15.6367 23.3333 12.5 23.3333V25C15.8067 25 18.84 24.4267 21.0783 23.4667C22.195 22.9883 23.1533 22.3967 23.8433 21.6983C24.5367 20.995 25 20.1383 25 19.1667H23.3333ZM12.5 23.3333C9.36333 23.3333 6.56333 22.7867 4.57833 21.9367C3.585 21.51 2.83333 21.025 2.34333 20.5267C1.85667 20.0333 1.66667 19.5767 1.66667 19.1667H0C0 20.1383 0.463333 20.995 1.15667 21.6983C1.84667 22.3983 2.805 22.9883 3.92333 23.4683C6.15833 24.4267 9.19167 25 12.5 25V23.3333ZM1.66667 19.1667C1.66667 18.7633 1.85 18.3117 2.32333 17.825C2.8 17.335 3.53167 16.855 4.5 16.43L3.83333 14.9033C2.74 15.3817 1.80333 15.97 1.13 16.6633C0.45 17.36 0 18.2083 0 19.1667H1.66667ZM20.5 16.43C21.4683 16.855 22.2 17.335 22.675 17.825C23.1483 18.3117 23.3333 18.7633 23.3333 19.1667H25C25 18.2083 24.55 17.36 23.87 16.6633C23.1967 15.97 22.26 15.3817 21.1667 14.9033L20.5 16.43ZM12.5 6.66667C11.837 6.66667 11.2011 6.40327 10.7322 5.93443C10.2634 5.46559 10 4.82971 10 4.16667H8.33333C8.33333 5.27174 8.77232 6.33154 9.55372 7.11294C10.3351 7.89435 11.3949 8.33333 12.5 8.33333V6.66667ZM15 4.16667C15 4.82971 14.7366 5.46559 14.2678 5.93443C13.7989 6.40327 13.163 6.66667 12.5 6.66667V8.33333C13.6051 8.33333 14.6649 7.89435 15.4463 7.11294C16.2277 6.33154 16.6667 5.27174 16.6667 4.16667H15ZM12.5 1.66667C13.163 1.66667 13.7989 1.93006 14.2678 2.3989C14.7366 2.86774 15 3.50363 15 4.16667H16.6667C16.6667 3.0616 16.2277 2.00179 15.4463 1.22039C14.6649 0.438987 13.6051 0 12.5 0V1.66667ZM12.5 0C11.3949 0 10.3351 0.438987 9.55372 1.22039C8.77232 2.00179 8.33333 3.0616 8.33333 4.16667H10C10 3.50363 10.2634 2.86774 10.7322 2.3989C11.2011 1.93006 11.837 1.66667 12.5 1.66667V0Z" fill="#979494"/>
</g>
<defs>
<clipPath id="clip0_1274_653">
<rect width="25" height="25" fill="white"/>
</clipPath>
</defs>
</svg>
