<svg width="35" height="35" viewBox="0 0 35 35" fill="none" xmlns="http://www.w3.org/2000/svg">
<g id="iwwa:option-horizontal">
<g id="Group">
<path id="Vector" d="M27.1364 20.2229C26.7787 20.223 26.4245 20.1527 26.0939 20.0159C25.7634 19.8791 25.4631 19.6786 25.2101 19.4257C24.957 19.1729 24.7563 18.8726 24.6193 18.5422C24.4823 18.2118 24.4118 17.8576 24.4116 17.4999C24.4115 17.1422 24.4819 16.788 24.6186 16.4574C24.7554 16.1269 24.956 15.8266 25.2088 15.5736C25.4617 15.3206 25.7619 15.1198 26.0923 14.9828C26.4228 14.8458 26.7769 14.7753 27.1346 14.7751C27.8571 14.7749 28.55 15.0617 29.061 15.5723C29.572 16.083 29.8592 16.7757 29.8594 17.4981C29.8596 18.2206 29.5729 18.9135 29.0622 19.4245C28.5515 19.9355 27.8588 20.2227 27.1364 20.2229Z" fill="#777777"/>
<path id="Vector_2" d="M17.7879 20.2229C19.2918 20.2229 20.5109 19.0037 20.5109 17.4999C20.5109 15.996 19.2918 14.7769 17.7879 14.7769C16.284 14.7769 15.0649 15.996 15.0649 17.4999C15.0649 19.0037 16.284 20.2229 17.7879 20.2229Z" fill="#777777"/>
<path id="Vector_3" d="M8.43763 20.2229C9.9415 20.2229 11.1606 19.0037 11.1606 17.4999C11.1606 15.996 9.9415 14.7769 8.43763 14.7769C6.93376 14.7769 5.71463 15.996 5.71463 17.4999C5.71463 19.0037 6.93376 20.2229 8.43763 20.2229Z" fill="#777777"/>
</g>
</g>
</svg>
