<svg width="20" height="20" viewBox="0 0 20 20" fill="none" xmlns="http://www.w3.org/2000/svg">
<path d="M17.5 1.25C17.8315 1.25 18.1495 1.3817 18.3839 1.61612C18.6183 1.85054 18.75 2.16848 18.75 2.5V17.5C18.75 17.8315 18.6183 18.1495 18.3839 18.3839C18.1495 18.6183 17.8315 18.75 17.5 18.75H2.5C2.16848 18.75 1.85054 18.6183 1.61612 18.3839C1.3817 18.1495 1.25 17.8315 1.25 17.5V2.5C1.25 2.16848 1.3817 1.85054 1.61612 1.61612C1.85054 1.3817 2.16848 1.25 2.5 1.25H17.5ZM2.5 0C1.83696 0 1.20107 0.263392 0.732233 0.732233C0.263392 1.20107 0 1.83696 0 2.5L0 17.5C0 18.163 0.263392 18.7989 0.732233 19.2678C1.20107 19.7366 1.83696 20 2.5 20H17.5C18.163 20 18.7989 19.7366 19.2678 19.2678C19.7366 18.7989 20 18.163 20 17.5V2.5C20 1.83696 19.7366 1.20107 19.2678 0.732233C18.7989 0.263392 18.163 0 17.5 0L2.5 0Z" fill="#FF4105"/>
<path d="M8.75244 13.7499C8.75244 13.5858 8.78477 13.4232 8.84759 13.2715C8.91041 13.1199 9.00248 12.9821 9.11856 12.866C9.23463 12.7499 9.37243 12.6579 9.52409 12.5951C9.67574 12.5322 9.83829 12.4999 10.0024 12.4999C10.1666 12.4999 10.3291 12.5322 10.4808 12.5951C10.6325 12.6579 10.7703 12.7499 10.8863 12.866C11.0024 12.9821 11.0945 13.1199 11.1573 13.2715C11.2201 13.4232 11.2524 13.5858 11.2524 13.7499C11.2524 14.0814 11.1207 14.3994 10.8863 14.6338C10.6519 14.8682 10.334 14.9999 10.0024 14.9999C9.67092 14.9999 9.35298 14.8682 9.11856 14.6338C8.88414 14.3994 8.75244 14.0814 8.75244 13.7499ZM8.87494 6.24365C8.8583 6.08595 8.87499 5.92652 8.92394 5.77569C8.97289 5.62486 9.05301 5.486 9.15909 5.36814C9.26517 5.25027 9.39485 5.15602 9.53971 5.09151C9.68456 5.02699 9.84137 4.99365 9.99994 4.99365C10.1585 4.99365 10.3153 5.02699 10.4602 5.09151C10.605 5.15602 10.7347 5.25027 10.8408 5.36814C10.9469 5.486 11.027 5.62486 11.0759 5.77569C11.1249 5.92652 11.1416 6.08595 11.1249 6.24365L10.6874 10.6274C10.6727 10.7996 10.5939 10.96 10.4666 11.0769C10.3393 11.1939 10.1728 11.2587 9.99994 11.2587C9.8271 11.2587 9.66055 11.1939 9.53325 11.0769C9.40594 10.96 9.32714 10.7996 9.31244 10.6274L8.87494 6.24365Z" fill="#FF4105"/>
</svg>
